<mxfile host="app.diagrams.net" modified="2023-06-17T10:16:46.977Z" agent="Mozilla/5.0 (Windows NT 10.0; Win64; x64) AppleWebKit/537.36 (KHTML, like Gecko) Chrome/114.0.0.0 Safari/537.36 Edg/114.0.1823.51" etag="b91AK5TfUaYtmGzOqg6z" version="21.3.7" type="device">
  <diagram name="Seite-1" id="DGZhzDIi017VfCBXo2_O">
    <mxGraphModel dx="487" dy="571" grid="1" gridSize="10" guides="1" tooltips="1" connect="1" arrows="1" fold="1" page="1" pageScale="1" pageWidth="1169" pageHeight="827" math="0" shadow="0">
      <root>
        <mxCell id="0" />
        <mxCell id="1" parent="0" />
        <mxCell id="JPW_2sHKlDIqMQg1-rqC-3" value="&lt;font style=&quot;font-size: 14px;&quot;&gt;&lt;b&gt;Frontend&lt;/b&gt;&lt;/font&gt;" style="rounded=0;whiteSpace=wrap;html=1;fillColor=#dae8fc;strokeColor=#6c8ebf;horizontal=1;verticalAlign=top;" vertex="1" parent="1">
          <mxGeometry x="120" y="80" width="240" height="360" as="geometry" />
        </mxCell>
        <mxCell id="JPW_2sHKlDIqMQg1-rqC-4" value="&lt;font style=&quot;font-size: 14px;&quot;&gt;&lt;b&gt;Backend&lt;/b&gt;&lt;/font&gt;" style="rounded=0;whiteSpace=wrap;html=1;fillColor=#f8cecc;strokeColor=#b85450;verticalAlign=top;" vertex="1" parent="1">
          <mxGeometry x="520" y="80" width="240" height="360" as="geometry" />
        </mxCell>
        <mxCell id="JPW_2sHKlDIqMQg1-rqC-5" value="&lt;font style=&quot;font-size: 14px;&quot;&gt;&lt;b&gt;AWS&lt;/b&gt;&lt;/font&gt;" style="rounded=0;whiteSpace=wrap;html=1;fillColor=#fff2cc;strokeColor=#d6b656;verticalAlign=top;" vertex="1" parent="1">
          <mxGeometry x="320" y="520" width="240" height="360" as="geometry" />
        </mxCell>
        <mxCell id="JPW_2sHKlDIqMQg1-rqC-6" value="View" style="rounded=1;whiteSpace=wrap;html=1;" vertex="1" parent="1">
          <mxGeometry x="180" y="140" width="120" height="40" as="geometry" />
        </mxCell>
        <mxCell id="JPW_2sHKlDIqMQg1-rqC-7" value="S3" style="shape=cylinder3;whiteSpace=wrap;html=1;boundedLbl=1;backgroundOutline=1;size=15;" vertex="1" parent="1">
          <mxGeometry x="350" y="570" width="60" height="80" as="geometry" />
        </mxCell>
        <mxCell id="JPW_2sHKlDIqMQg1-rqC-8" value="" style="endArrow=classic;html=1;rounded=0;exitX=0.167;exitY=1;exitDx=0;exitDy=0;exitPerimeter=0;" edge="1" parent="1" source="JPW_2sHKlDIqMQg1-rqC-3">
          <mxGeometry width="50" height="50" relative="1" as="geometry">
            <mxPoint x="470" y="550" as="sourcePoint" />
            <mxPoint x="320" y="720" as="targetPoint" />
            <Array as="points">
              <mxPoint x="160" y="720" />
              <mxPoint x="240" y="720" />
            </Array>
          </mxGeometry>
        </mxCell>
        <mxCell id="JPW_2sHKlDIqMQg1-rqC-9" value="" style="endArrow=classic;html=1;rounded=0;entryX=0.5;entryY=1;entryDx=0;entryDy=0;" edge="1" parent="1" target="JPW_2sHKlDIqMQg1-rqC-3">
          <mxGeometry width="50" height="50" relative="1" as="geometry">
            <mxPoint x="320" y="640" as="sourcePoint" />
            <mxPoint x="290" y="800" as="targetPoint" />
            <Array as="points">
              <mxPoint x="240" y="640" />
            </Array>
          </mxGeometry>
        </mxCell>
        <mxCell id="JPW_2sHKlDIqMQg1-rqC-10" value="" style="endArrow=classic;html=1;rounded=0;entryX=1.004;entryY=0.556;entryDx=0;entryDy=0;exitX=0.835;exitY=0.999;exitDx=0;exitDy=0;entryPerimeter=0;exitPerimeter=0;" edge="1" parent="1" source="JPW_2sHKlDIqMQg1-rqC-4" target="JPW_2sHKlDIqMQg1-rqC-5">
          <mxGeometry width="50" height="50" relative="1" as="geometry">
            <mxPoint x="700" y="490" as="sourcePoint" />
            <mxPoint x="876" y="698" as="targetPoint" />
            <Array as="points">
              <mxPoint x="720" y="720" />
            </Array>
          </mxGeometry>
        </mxCell>
        <mxCell id="JPW_2sHKlDIqMQg1-rqC-11" value="" style="endArrow=classic;html=1;rounded=0;entryX=0.667;entryY=1.001;entryDx=0;entryDy=0;exitX=1.002;exitY=0.333;exitDx=0;exitDy=0;entryPerimeter=0;exitPerimeter=0;" edge="1" parent="1" source="JPW_2sHKlDIqMQg1-rqC-5" target="JPW_2sHKlDIqMQg1-rqC-4">
          <mxGeometry width="50" height="50" relative="1" as="geometry">
            <mxPoint x="689" y="450" as="sourcePoint" />
            <mxPoint x="530" y="730" as="targetPoint" />
            <Array as="points">
              <mxPoint x="680" y="640" />
            </Array>
          </mxGeometry>
        </mxCell>
      </root>
    </mxGraphModel>
  </diagram>
</mxfile>
